<svg width="219" height="26" viewBox="0 0 219 26" fill="none" xmlns="http://www.w3.org/2000/svg">
<path d="M218.86 18.2303C218.48 18.6403 210.57 9.60025 210.37 17.2303C207.64 8.32025 197.46 13.2603 190.38 13.3103C185.82 13.3503 181.49 11.6103 176.87 12.2403C176.6 13.6103 177.22 14.6403 178.54 15.0603C180.99 15.8403 185.48 13.9903 186.86 16.2203L152.32 15.1803C116.43 17.5503 79.57 15.3803 43.38 18.2403C41.87 18.3603 39.81 18.8303 38.3 19.2103C36.62 19.6303 35.38 18.2103 35.88 21.2303L70.32 20.1803L79.86 21.2203L21.33 24.2003C10.87 29.8003 4.38 20.2603 0 11.9103C0.64 4.26028 19.53 1.66026 25.37 1.24026C71.56 -2.03974 121.81 2.49027 168.4 0.190274C185.41 3.23027 211.59 -2.13975 218.85 18.2303H218.86Z" fill="#03A9F4" style="fill:#03A9F4;fill:color(display-p3 0.0118 0.6627 0.9569);fill-opacity:1;"/>
<path d="M130.87 21.2302H96.8699V22.2302H130.87V21.2302Z" fill="#03A9F4" style="fill:#03A9F4;fill:color(display-p3 0.0118 0.6627 0.9569);fill-opacity:1;"/>
</svg>
