<svg width="112" height="17" viewBox="0 0 112 17" fill="none" xmlns="http://www.w3.org/2000/svg">
<path d="M56.55 14V7.51H54.55V6.69H59.45V7.51H57.45V14H56.55ZM62.7161 14.1C62.2828 14.1 61.9028 14.0133 61.5761 13.84C61.2561 13.6667 61.0061 13.4233 60.8261 13.11C60.6528 12.79 60.5661 12.42 60.5661 12V10.5C60.5661 10.0733 60.6528 9.70333 60.8261 9.39C61.0061 9.07667 61.2561 8.83333 61.5761 8.66C61.9028 8.48667 62.2828 8.4 62.7161 8.4C63.1494 8.4 63.5261 8.48667 63.8461 8.66C64.1728 8.83333 64.4228 9.07667 64.5961 9.39C64.7761 9.70333 64.8661 10.0733 64.8661 10.5V11.47H61.4461V12C61.4461 12.4333 61.5561 12.7667 61.7761 13C61.9961 13.2267 62.3094 13.34 62.7161 13.34C63.0628 13.34 63.3428 13.28 63.5561 13.16C63.7694 13.0333 63.8994 12.8467 63.9461 12.6H64.8461C64.7861 13.06 64.5594 13.4267 64.1661 13.7C63.7794 13.9667 63.2961 14.1 62.7161 14.1ZM63.9861 10.87V10.5C63.9861 10.0667 63.8761 9.73333 63.6561 9.5C63.4428 9.26667 63.1294 9.15 62.7161 9.15C62.3094 9.15 61.9961 9.26667 61.7761 9.5C61.5561 9.73333 61.4461 10.0667 61.4461 10.5V10.79H64.0561L63.9861 10.87ZM68.4722 14.1C68.0322 14.1 67.6455 14.0167 67.3122 13.85C66.9855 13.6833 66.7322 13.4433 66.5522 13.13C66.3722 12.81 66.2822 12.4333 66.2822 12V10.5C66.2822 10.06 66.3722 9.68333 66.5522 9.37C66.7322 9.05667 66.9855 8.81667 67.3122 8.65C67.6455 8.48333 68.0322 8.4 68.4722 8.4C69.1055 8.4 69.6155 8.57 70.0022 8.91C70.3889 9.25 70.5922 9.71333 70.6122 10.3H69.7122C69.6922 9.94667 69.5722 9.67667 69.3522 9.49C69.1389 9.29667 68.8455 9.2 68.4722 9.2C68.0789 9.2 67.7655 9.31333 67.5322 9.54C67.2989 9.76 67.1822 10.0767 67.1822 10.49V12C67.1822 12.4133 67.2989 12.7333 67.5322 12.96C67.7655 13.1867 68.0789 13.3 68.4722 13.3C68.8455 13.3 69.1389 13.2033 69.3522 13.01C69.5722 12.8167 69.6922 12.5467 69.7122 12.2H70.6122C70.5922 12.7867 70.3889 13.25 70.0022 13.59C69.6155 13.93 69.1055 14.1 68.4722 14.1ZM72.0683 14V6.7H72.9683V8.5V9.55H73.1583L72.9683 9.76C72.9683 9.32667 73.0983 8.99333 73.3583 8.76C73.6183 8.52 73.9783 8.4 74.4383 8.4C74.9916 8.4 75.4316 8.57 75.7583 8.91C76.0849 9.25 76.2483 9.71333 76.2483 10.3V14H75.3483V10.4C75.3483 10.0067 75.2416 9.70333 75.0283 9.49C74.8216 9.27 74.5383 9.16 74.1783 9.16C73.8049 9.16 73.5083 9.27667 73.2883 9.51C73.0749 9.74333 72.9683 10.0733 72.9683 10.5V14H72.0683ZM83.5105 14V6.7H84.4105V9.82H86.7505V6.7H87.6505V14H86.7505V10.64H84.4105V14H83.5105ZM91.2966 14.08C90.8566 14.08 90.4766 13.9967 90.1566 13.83C89.8366 13.6633 89.5866 13.4233 89.4066 13.11C89.2332 12.79 89.1466 12.4133 89.1466 11.98V10.52C89.1466 10.08 89.2332 9.70333 89.4066 9.39C89.5866 9.07667 89.8366 8.83667 90.1566 8.67C90.4766 8.50333 90.8566 8.42 91.2966 8.42C91.7366 8.42 92.1166 8.50333 92.4366 8.67C92.7566 8.83667 93.0032 9.07667 93.1766 9.39C93.3566 9.70333 93.4466 10.0767 93.4466 10.51V11.98C93.4466 12.4133 93.3566 12.79 93.1766 13.11C93.0032 13.4233 92.7566 13.6633 92.4366 13.83C92.1166 13.9967 91.7366 14.08 91.2966 14.08ZM91.2966 13.28C91.6899 13.28 91.9966 13.17 92.2166 12.95C92.4366 12.73 92.5466 12.4067 92.5466 11.98V10.52C92.5466 10.0933 92.4366 9.77 92.2166 9.55C91.9966 9.33 91.6899 9.22 91.2966 9.22C90.9099 9.22 90.6032 9.33 90.3766 9.55C90.1566 9.77 90.0466 10.0933 90.0466 10.52V11.98C90.0466 12.4067 90.1566 12.73 90.3766 12.95C90.6032 13.17 90.9099 13.28 91.2966 13.28ZM97.0027 14.1C96.3693 14.1 95.8627 13.9133 95.4827 13.54C95.1027 13.16 94.9127 12.6467 94.9127 12V8.5H95.8127V12C95.8127 12.4133 95.9193 12.7367 96.1327 12.97C96.346 13.1967 96.636 13.31 97.0027 13.31C97.376 13.31 97.6693 13.1967 97.8827 12.97C98.1027 12.7367 98.2127 12.4133 98.2127 12V8.5H99.1127V12C99.1127 12.6467 98.9193 13.16 98.5327 13.54C98.146 13.9133 97.636 14.1 97.0027 14.1ZM102.559 14.08C102.185 14.08 101.859 14.0233 101.579 13.91C101.305 13.79 101.085 13.6233 100.919 13.41C100.759 13.1967 100.662 12.9433 100.629 12.65H101.529C101.569 12.8433 101.675 12.9967 101.849 13.11C102.029 13.2233 102.265 13.28 102.559 13.28H102.979C103.332 13.28 103.595 13.21 103.769 13.07C103.942 12.9233 104.029 12.73 104.029 12.49C104.029 12.2567 103.949 12.0733 103.789 11.94C103.635 11.8 103.405 11.7067 103.099 11.66L102.359 11.54C101.819 11.4467 101.415 11.28 101.149 11.04C100.889 10.7933 100.759 10.4367 100.759 9.97C100.759 9.47667 100.915 9.09667 101.229 8.83C101.542 8.55667 102.012 8.42 102.639 8.42H103.019C103.545 8.42 103.969 8.54333 104.289 8.79C104.609 9.03667 104.802 9.37 104.869 9.79H103.969C103.929 9.61667 103.829 9.48 103.669 9.38C103.509 9.27333 103.292 9.22 103.019 9.22H102.639C102.299 9.22 102.049 9.28333 101.889 9.41C101.735 9.53667 101.659 9.72667 101.659 9.98C101.659 10.2067 101.725 10.3733 101.859 10.48C101.992 10.5867 102.202 10.6633 102.489 10.71L103.229 10.83C103.822 10.9233 104.252 11.0967 104.519 11.35C104.792 11.6033 104.929 11.97 104.929 12.45C104.929 12.9567 104.765 13.3567 104.439 13.65C104.119 13.9367 103.632 14.08 102.979 14.08H102.559ZM108.445 14.1C108.012 14.1 107.632 14.0133 107.305 13.84C106.985 13.6667 106.735 13.4233 106.555 13.11C106.382 12.79 106.295 12.42 106.295 12V10.5C106.295 10.0733 106.382 9.70333 106.555 9.39C106.735 9.07667 106.985 8.83333 107.305 8.66C107.632 8.48667 108.012 8.4 108.445 8.4C108.878 8.4 109.255 8.48667 109.575 8.66C109.902 8.83333 110.152 9.07667 110.325 9.39C110.505 9.70333 110.595 10.0733 110.595 10.5V11.47H107.175V12C107.175 12.4333 107.285 12.7667 107.505 13C107.725 13.2267 108.038 13.34 108.445 13.34C108.792 13.34 109.072 13.28 109.285 13.16C109.498 13.0333 109.628 12.8467 109.675 12.6H110.575C110.515 13.06 110.288 13.4267 109.895 13.7C109.508 13.9667 109.025 14.1 108.445 14.1ZM109.715 10.87V10.5C109.715 10.0667 109.605 9.73333 109.385 9.5C109.172 9.26667 108.858 9.15 108.445 9.15C108.038 9.15 107.725 9.26667 107.505 9.5C107.285 9.73333 107.175 10.0667 107.175 10.5V10.79H109.785L109.715 10.87Z" fill="black"/>
<path d="M3.03764 3.81818V14H0.884943V3.81818H3.03764ZM6.4949 3.81818V14H4.377V3.81818H6.4949ZM9.91735 3.81818V14H7.79945V3.81818H9.91735ZM16.1189 10.7486V6.36364H18.2368V14H16.2034V12.6129H16.1239C15.9515 13.0604 15.6649 13.42 15.2638 13.6918C14.8661 13.9635 14.3805 14.0994 13.8071 14.0994C13.2967 14.0994 12.8476 13.9834 12.4598 13.7514C12.072 13.5194 11.7688 13.1896 11.55 12.7621C11.3346 12.3345 11.2252 11.8224 11.2219 11.2259V6.36364H13.3398V10.848C13.3431 11.2988 13.4641 11.6551 13.7027 11.9169C13.9414 12.1787 14.2612 12.3097 14.6622 12.3097C14.9175 12.3097 15.1561 12.2517 15.3782 12.1357C15.6002 12.0163 15.7792 11.8407 15.9151 11.6087C16.0543 11.3767 16.1222 11.09 16.1189 10.7486ZM25.8926 8.54119L23.9537 8.66051C23.9205 8.49479 23.8493 8.34564 23.7399 8.21307C23.6305 8.07718 23.4863 7.96946 23.3074 7.88991C23.1317 7.80705 22.9212 7.76562 22.676 7.76562C22.3478 7.76562 22.0711 7.83523 21.8457 7.97443C21.6203 8.11032 21.5076 8.29261 21.5076 8.52131C21.5076 8.7036 21.5806 8.85772 21.7264 8.98366C21.8722 9.10961 22.1225 9.2107 22.4771 9.28693L23.8592 9.56534C24.6016 9.7178 25.1551 9.96307 25.5197 10.3011C25.8843 10.6392 26.0666 11.0833 26.0666 11.6335C26.0666 12.134 25.9191 12.5732 25.6241 12.951C25.3324 13.3288 24.9314 13.6238 24.421 13.8359C23.9139 14.0447 23.3289 14.1491 22.666 14.1491C21.6551 14.1491 20.8497 13.9387 20.2498 13.5178C19.6532 13.0935 19.3036 12.5168 19.2008 11.7876L21.2839 11.6783C21.3469 11.9865 21.4994 12.2218 21.7413 12.3842C21.9833 12.5433 22.2931 12.6229 22.671 12.6229C23.0422 12.6229 23.3405 12.5516 23.5659 12.4091C23.7946 12.2633 23.9106 12.076 23.9139 11.8473C23.9106 11.6551 23.8294 11.4976 23.6703 11.375C23.5112 11.2491 23.2659 11.1529 22.9345 11.0866L21.612 10.8232C20.8663 10.674 20.3111 10.4155 19.9466 10.0476C19.5853 9.67969 19.4047 9.2107 19.4047 8.64062C19.4047 8.15009 19.5372 7.72751 19.8024 7.37287C20.0708 7.01823 20.447 6.74479 20.9309 6.55256C21.4181 6.36032 21.9882 6.2642 22.6412 6.2642C23.6057 6.2642 24.3646 6.46804 24.9181 6.87571C25.475 7.28338 25.7998 7.83854 25.8926 8.54119ZM31.07 6.36364V7.95455H26.4713V6.36364H31.07ZM27.5153 4.53409H29.6332V11.6534C29.6332 11.849 29.663 12.0014 29.7227 12.1108C29.7824 12.2169 29.8652 12.2914 29.9713 12.3345C30.0807 12.3776 30.2066 12.3991 30.3491 12.3991C30.4486 12.3991 30.548 12.3909 30.6474 12.3743C30.7469 12.3544 30.8231 12.3395 30.8761 12.3295L31.2092 13.9055C31.1032 13.9387 30.954 13.9768 30.7618 14.0199C30.5695 14.0663 30.3359 14.0945 30.0608 14.1044C29.5504 14.1243 29.1029 14.0563 28.7184 13.9006C28.3373 13.7448 28.0407 13.5028 27.8285 13.1747C27.6164 12.8466 27.512 12.4323 27.5153 11.9318V4.53409ZM32.0576 14V6.36364H34.1109V7.69602H34.1904C34.3296 7.22206 34.5633 6.86411 34.8914 6.62216C35.2196 6.37689 35.5974 6.25426 36.025 6.25426C36.131 6.25426 36.2454 6.26089 36.368 6.27415C36.4906 6.28741 36.5983 6.30563 36.6911 6.32883V8.2081C36.5917 8.17827 36.4542 8.15175 36.2785 8.12855C36.1028 8.10535 35.9421 8.09375 35.7963 8.09375C35.4847 8.09375 35.2063 8.1617 34.961 8.29759C34.7191 8.43016 34.5268 8.61577 34.3843 8.8544C34.2451 9.09304 34.1755 9.36813 34.1755 9.67969V14H32.0576ZM40.5188 14.1491C39.7333 14.1491 39.0571 13.9901 38.4904 13.6719C37.9269 13.3504 37.4927 12.8963 37.1878 12.3097C36.8829 11.7197 36.7304 11.022 36.7304 10.2166C36.7304 9.43111 36.8829 8.74171 37.1878 8.14844C37.4927 7.55516 37.922 7.0928 38.4755 6.76136C39.0323 6.42992 39.6852 6.2642 40.4343 6.2642C40.9381 6.2642 41.407 6.34541 41.8412 6.50781C42.2787 6.6669 42.6599 6.9072 42.9847 7.22869C43.3128 7.55019 43.568 7.95455 43.7503 8.44176C43.9326 8.92566 44.0238 9.49242 44.0238 10.142V10.7237H37.5756V9.41122H42.0301C42.0301 9.1063 41.9639 8.83617 41.8313 8.60085C41.6987 8.36553 41.5148 8.18158 41.2794 8.04901C41.0474 7.91312 40.7773 7.84517 40.4691 7.84517C40.1476 7.84517 39.8625 7.91974 39.614 8.06889C39.3687 8.21473 39.1765 8.41193 39.0373 8.66051C38.898 8.90578 38.8268 9.17921 38.8235 9.48082V10.7287C38.8235 11.1065 38.8931 11.433 39.0323 11.7081C39.1748 11.9832 39.3753 12.1953 39.6338 12.3445C39.8924 12.4936 40.1989 12.5682 40.5536 12.5682C40.7889 12.5682 41.0043 12.535 41.1999 12.4688C41.3954 12.4025 41.5628 12.303 41.702 12.1705C41.8412 12.0379 41.9473 11.8755 42.0202 11.6832L43.979 11.8125C43.8796 12.2831 43.6757 12.6941 43.3675 13.0455C43.0626 13.3935 42.6682 13.6652 42.1843 13.8608C41.7037 14.053 41.1485 14.1491 40.5188 14.1491Z" fill="black"/>
<rect x="47" y="11" width="3" height="3" fill="#03A9F4"/>
</svg>
