<svg width="99" height="32" viewBox="0 0 99 32" fill="none" xmlns="http://www.w3.org/2000/svg">
<g clip-path="url(#clip0_2017_130)">
<path d="M26 0H6C2.68629 0 0 2.68629 0 6V26C0 29.3137 2.68629 32 6 32H26C29.3137 32 32 29.3137 32 26V6C32 2.68629 29.3137 0 26 0Z" fill="#0D1117"/>
<path d="M8 4H4V28H8V4Z" fill="#03A9F4"/>
<path d="M16 4H12V8H16V4Z" fill="#03A9F4"/>
<path d="M24 4H16V8H24V4Z" fill="#03A9F4"/>
<path d="M28 4H24V28H28V4Z" fill="#03A9F4"/>
<path d="M16 14H12V18H16V14Z" fill="#03A9F4"/>
<path d="M20 14H16V18H20V14Z" fill="#03A9F4"/>
</g>
<path d="M44.0376 3.81818V14H41.8849V3.81818H44.0376ZM47.4949 3.81818V14H45.377V3.81818H47.4949ZM50.9173 3.81818V14H48.7995V3.81818H50.9173ZM57.1189 10.7486V6.36364H59.2368V14H57.2034V12.6129H57.1239C56.9515 13.0604 56.6649 13.42 56.2638 13.6918C55.8661 13.9635 55.3805 14.0994 54.8071 14.0994C54.2967 14.0994 53.8476 13.9834 53.4598 13.7514C53.072 13.5194 52.7688 13.1896 52.55 12.7621C52.3346 12.3345 52.2252 11.8224 52.2219 11.2259V6.36364H54.3398V10.848C54.3431 11.2988 54.4641 11.6551 54.7027 11.9169C54.9414 12.1787 55.2612 12.3097 55.6622 12.3097C55.9175 12.3097 56.1561 12.2517 56.3782 12.1357C56.6002 12.0163 56.7792 11.8407 56.9151 11.6087C57.0543 11.3767 57.1222 11.09 57.1189 10.7486ZM66.8926 8.54119L64.9537 8.66051C64.9205 8.49479 64.8493 8.34564 64.7399 8.21307C64.6305 8.07718 64.4863 7.96946 64.3074 7.88991C64.1317 7.80705 63.9212 7.76562 63.676 7.76562C63.3478 7.76562 63.0711 7.83523 62.8457 7.97443C62.6203 8.11032 62.5076 8.29261 62.5076 8.52131C62.5076 8.7036 62.5806 8.85772 62.7264 8.98366C62.8722 9.10961 63.1225 9.2107 63.4771 9.28693L64.8592 9.56534C65.6016 9.7178 66.1551 9.96307 66.5197 10.3011C66.8843 10.6392 67.0666 11.0833 67.0666 11.6335C67.0666 12.134 66.9191 12.5732 66.6241 12.951C66.3324 13.3288 65.9314 13.6238 65.421 13.8359C64.9139 14.0447 64.3289 14.1491 63.666 14.1491C62.6551 14.1491 61.8497 13.9387 61.2498 13.5178C60.6532 13.0935 60.3036 12.5168 60.2008 11.7876L62.2839 11.6783C62.3469 11.9865 62.4994 12.2218 62.7413 12.3842C62.9833 12.5433 63.2931 12.6229 63.671 12.6229C64.0422 12.6229 64.3405 12.5516 64.5659 12.4091C64.7946 12.2633 64.9106 12.076 64.9139 11.8473C64.9106 11.6551 64.8294 11.4976 64.6703 11.375C64.5112 11.2491 64.2659 11.1529 63.9345 11.0866L62.612 10.8232C61.8663 10.674 61.3111 10.4155 60.9466 10.0476C60.5853 9.67969 60.4047 9.2107 60.4047 8.64062C60.4047 8.15009 60.5372 7.72751 60.8024 7.37287C61.0708 7.01823 61.447 6.74479 61.9309 6.55256C62.4181 6.36032 62.9882 6.2642 63.6412 6.2642C64.6057 6.2642 65.3646 6.46804 65.9181 6.87571C66.475 7.28338 66.7998 7.83854 66.8926 8.54119ZM72.07 6.36364V7.95455H67.4713V6.36364H72.07ZM68.5153 4.53409H70.6332V11.6534C70.6332 11.849 70.663 12.0014 70.7227 12.1108C70.7824 12.2169 70.8652 12.2914 70.9713 12.3345C71.0807 12.3776 71.2066 12.3991 71.3491 12.3991C71.4486 12.3991 71.548 12.3909 71.6474 12.3743C71.7469 12.3544 71.8231 12.3395 71.8761 12.3295L72.2092 13.9055C72.1032 13.9387 71.954 13.9768 71.7618 14.0199C71.5695 14.0663 71.3359 14.0945 71.0608 14.1044C70.5504 14.1243 70.1029 14.0563 69.7184 13.9006C69.3373 13.7448 69.0407 13.5028 68.8285 13.1747C68.6164 12.8466 68.512 12.4323 68.5153 11.9318V4.53409ZM73.0576 14V6.36364H75.1109V7.69602H75.1904C75.3296 7.22206 75.5633 6.86411 75.8914 6.62216C76.2196 6.37689 76.5974 6.25426 77.025 6.25426C77.131 6.25426 77.2454 6.26089 77.368 6.27415C77.4906 6.28741 77.5983 6.30563 77.6911 6.32883V8.2081C77.5917 8.17827 77.4542 8.15175 77.2785 8.12855C77.1028 8.10535 76.9421 8.09375 76.7963 8.09375C76.4847 8.09375 76.2063 8.1617 75.961 8.29759C75.7191 8.43016 75.5268 8.61577 75.3843 8.8544C75.2451 9.09304 75.1755 9.36813 75.1755 9.67969V14H73.0576ZM81.5188 14.1491C80.7333 14.1491 80.0571 13.9901 79.4904 13.6719C78.9269 13.3504 78.4927 12.8963 78.1878 12.3097C77.8829 11.7197 77.7304 11.022 77.7304 10.2166C77.7304 9.43111 77.8829 8.74171 78.1878 8.14844C78.4927 7.55516 78.922 7.0928 79.4755 6.76136C80.0323 6.42992 80.6852 6.2642 81.4343 6.2642C81.9381 6.2642 82.407 6.34541 82.8412 6.50781C83.2787 6.6669 83.6599 6.9072 83.9847 7.22869C84.3128 7.55019 84.568 7.95455 84.7503 8.44176C84.9326 8.92566 85.0238 9.49242 85.0238 10.142V10.7237H78.5756V9.41122H83.0301C83.0301 9.1063 82.9639 8.83617 82.8313 8.60085C82.6987 8.36553 82.5148 8.18158 82.2794 8.04901C82.0474 7.91312 81.7773 7.84517 81.4691 7.84517C81.1476 7.84517 80.8625 7.91974 80.614 8.06889C80.3687 8.21473 80.1765 8.41193 80.0373 8.66051C79.898 8.90578 79.8268 9.17921 79.8235 9.48082V10.7287C79.8235 11.1065 79.8931 11.433 80.0323 11.7081C80.1748 11.9832 80.3753 12.1953 80.6338 12.3445C80.8924 12.4936 81.1989 12.5682 81.5536 12.5682C81.7889 12.5682 82.0043 12.535 82.1999 12.4688C82.3954 12.4025 82.5628 12.303 82.702 12.1705C82.8412 12.0379 82.9473 11.8755 83.0202 11.6832L84.979 11.8125C84.8796 12.2831 84.6757 12.6941 84.3675 13.0455C84.0626 13.3935 83.6682 13.6652 83.1843 13.8608C82.7037 14.053 82.1485 14.1491 81.5188 14.1491Z" fill="black"/>
<path d="M43.55 28V21.51H41.55V20.69H46.45V21.51H44.45V28H43.55ZM49.7161 28.1C49.2828 28.1 48.9028 28.0133 48.5761 27.84C48.2561 27.6667 48.0061 27.4233 47.8261 27.11C47.6528 26.79 47.5661 26.42 47.5661 26V24.5C47.5661 24.0733 47.6528 23.7033 47.8261 23.39C48.0061 23.0767 48.2561 22.8333 48.5761 22.66C48.9028 22.4867 49.2828 22.4 49.7161 22.4C50.1494 22.4 50.5261 22.4867 50.8461 22.66C51.1728 22.8333 51.4228 23.0767 51.5961 23.39C51.7761 23.7033 51.8661 24.0733 51.8661 24.5V25.47H48.4461V26C48.4461 26.4333 48.5561 26.7667 48.7761 27C48.9961 27.2267 49.3094 27.34 49.7161 27.34C50.0628 27.34 50.3428 27.28 50.5561 27.16C50.7694 27.0333 50.8994 26.8467 50.9461 26.6H51.8461C51.7861 27.06 51.5594 27.4267 51.1661 27.7C50.7794 27.9667 50.2961 28.1 49.7161 28.1ZM50.9861 24.87V24.5C50.9861 24.0667 50.8761 23.7333 50.6561 23.5C50.4428 23.2667 50.1294 23.15 49.7161 23.15C49.3094 23.15 48.9961 23.2667 48.7761 23.5C48.5561 23.7333 48.4461 24.0667 48.4461 24.5V24.79H51.0561L50.9861 24.87ZM55.4722 28.1C55.0322 28.1 54.6455 28.0167 54.3122 27.85C53.9855 27.6833 53.7322 27.4433 53.5522 27.13C53.3722 26.81 53.2822 26.4333 53.2822 26V24.5C53.2822 24.06 53.3722 23.6833 53.5522 23.37C53.7322 23.0567 53.9855 22.8167 54.3122 22.65C54.6455 22.4833 55.0322 22.4 55.4722 22.4C56.1055 22.4 56.6155 22.57 57.0022 22.91C57.3889 23.25 57.5922 23.7133 57.6122 24.3H56.7122C56.6922 23.9467 56.5722 23.6767 56.3522 23.49C56.1389 23.2967 55.8455 23.2 55.4722 23.2C55.0789 23.2 54.7655 23.3133 54.5322 23.54C54.2989 23.76 54.1822 24.0767 54.1822 24.49V26C54.1822 26.4133 54.2989 26.7333 54.5322 26.96C54.7655 27.1867 55.0789 27.3 55.4722 27.3C55.8455 27.3 56.1389 27.2033 56.3522 27.01C56.5722 26.8167 56.6922 26.5467 56.7122 26.2H57.6122C57.5922 26.7867 57.3889 27.25 57.0022 27.59C56.6155 27.93 56.1055 28.1 55.4722 28.1ZM59.0683 28V20.7H59.9683V22.5V23.55H60.1583L59.9683 23.76C59.9683 23.3267 60.0983 22.9933 60.3583 22.76C60.6183 22.52 60.9783 22.4 61.4383 22.4C61.9916 22.4 62.4316 22.57 62.7583 22.91C63.0849 23.25 63.2483 23.7133 63.2483 24.3V28H62.3483V24.4C62.3483 24.0067 62.2416 23.7033 62.0283 23.49C61.8216 23.27 61.5383 23.16 61.1783 23.16C60.8049 23.16 60.5083 23.2767 60.2883 23.51C60.0749 23.7433 59.9683 24.0733 59.9683 24.5V28H59.0683ZM70.5105 28V20.7H71.4105V23.82H73.7505V20.7H74.6505V28H73.7505V24.64H71.4105V28H70.5105ZM78.2966 28.08C77.8566 28.08 77.4766 27.9967 77.1566 27.83C76.8366 27.6633 76.5866 27.4233 76.4066 27.11C76.2332 26.79 76.1466 26.4133 76.1466 25.98V24.52C76.1466 24.08 76.2332 23.7033 76.4066 23.39C76.5866 23.0767 76.8366 22.8367 77.1566 22.67C77.4766 22.5033 77.8566 22.42 78.2966 22.42C78.7366 22.42 79.1166 22.5033 79.4366 22.67C79.7566 22.8367 80.0032 23.0767 80.1766 23.39C80.3566 23.7033 80.4466 24.0767 80.4466 24.51V25.98C80.4466 26.4133 80.3566 26.79 80.1766 27.11C80.0032 27.4233 79.7566 27.6633 79.4366 27.83C79.1166 27.9967 78.7366 28.08 78.2966 28.08ZM78.2966 27.28C78.6899 27.28 78.9966 27.17 79.2166 26.95C79.4366 26.73 79.5466 26.4067 79.5466 25.98V24.52C79.5466 24.0933 79.4366 23.77 79.2166 23.55C78.9966 23.33 78.6899 23.22 78.2966 23.22C77.9099 23.22 77.6032 23.33 77.3766 23.55C77.1566 23.77 77.0466 24.0933 77.0466 24.52V25.98C77.0466 26.4067 77.1566 26.73 77.3766 26.95C77.6032 27.17 77.9099 27.28 78.2966 27.28ZM84.0027 28.1C83.3693 28.1 82.8627 27.9133 82.4827 27.54C82.1027 27.16 81.9127 26.6467 81.9127 26V22.5H82.8127V26C82.8127 26.4133 82.9193 26.7367 83.1327 26.97C83.346 27.1967 83.636 27.31 84.0027 27.31C84.376 27.31 84.6693 27.1967 84.8827 26.97C85.1027 26.7367 85.2127 26.4133 85.2127 26V22.5H86.1127V26C86.1127 26.6467 85.9193 27.16 85.5327 27.54C85.146 27.9133 84.636 28.1 84.0027 28.1ZM89.5587 28.08C89.1854 28.08 88.8587 28.0233 88.5787 27.91C88.3054 27.79 88.0854 27.6233 87.9187 27.41C87.7587 27.1967 87.6621 26.9433 87.6287 26.65H88.5287C88.5687 26.8433 88.6754 26.9967 88.8487 27.11C89.0287 27.2233 89.2654 27.28 89.5587 27.28H89.9787C90.3321 27.28 90.5954 27.21 90.7687 27.07C90.9421 26.9233 91.0287 26.73 91.0287 26.49C91.0287 26.2567 90.9487 26.0733 90.7887 25.94C90.6354 25.8 90.4054 25.7067 90.0987 25.66L89.3587 25.54C88.8187 25.4467 88.4154 25.28 88.1487 25.04C87.8887 24.7933 87.7587 24.4367 87.7587 23.97C87.7587 23.4767 87.9154 23.0967 88.2287 22.83C88.5421 22.5567 89.0121 22.42 89.6387 22.42H90.0187C90.5454 22.42 90.9687 22.5433 91.2887 22.79C91.6087 23.0367 91.8021 23.37 91.8687 23.79H90.9687C90.9287 23.6167 90.8287 23.48 90.6687 23.38C90.5087 23.2733 90.2921 23.22 90.0187 23.22H89.6387C89.2987 23.22 89.0487 23.2833 88.8887 23.41C88.7354 23.5367 88.6587 23.7267 88.6587 23.98C88.6587 24.2067 88.7254 24.3733 88.8587 24.48C88.9921 24.5867 89.2021 24.6633 89.4887 24.71L90.2287 24.83C90.8221 24.9233 91.2521 25.0967 91.5187 25.35C91.7921 25.6033 91.9287 25.97 91.9287 26.45C91.9287 26.9567 91.7654 27.3567 91.4387 27.65C91.1187 27.9367 90.6321 28.08 89.9787 28.08H89.5587ZM95.4448 28.1C95.0115 28.1 94.6315 28.0133 94.3048 27.84C93.9848 27.6667 93.7348 27.4233 93.5548 27.11C93.3815 26.79 93.2948 26.42 93.2948 26V24.5C93.2948 24.0733 93.3815 23.7033 93.5548 23.39C93.7348 23.0767 93.9848 22.8333 94.3048 22.66C94.6315 22.4867 95.0115 22.4 95.4448 22.4C95.8782 22.4 96.2548 22.4867 96.5748 22.66C96.9015 22.8333 97.1515 23.0767 97.3248 23.39C97.5048 23.7033 97.5948 24.0733 97.5948 24.5V25.47H94.1748V26C94.1748 26.4333 94.2848 26.7667 94.5048 27C94.7248 27.2267 95.0382 27.34 95.4448 27.34C95.7915 27.34 96.0715 27.28 96.2848 27.16C96.4982 27.0333 96.6282 26.8467 96.6748 26.6H97.5748C97.5148 27.06 97.2882 27.4267 96.8948 27.7C96.5082 27.9667 96.0248 28.1 95.4448 28.1ZM96.7148 24.87V24.5C96.7148 24.0667 96.6048 23.7333 96.3848 23.5C96.1715 23.2667 95.8582 23.15 95.4448 23.15C95.0382 23.15 94.7248 23.2667 94.5048 23.5C94.2848 23.7333 94.1748 24.0667 94.1748 24.5V24.79H96.7848L96.7148 24.87Z" fill="black"/>
<rect x="88" y="11" width="3" height="3" fill="#03A9F4"/>
<defs>
<clipPath id="clip0_2017_130">
<rect width="32" height="32" fill="white"/>
</clipPath>
</defs>
</svg>
